<?xml version="1.0" encoding="utf-8"?>
<!-- Generator: Adobe Illustrator 21.0.2, SVG Export Plug-In . SVG Version: 6.00 Build 0)  -->
<svg version="1.1" xmlns="http://www.w3.org/2000/svg" xmlns:xlink="http://www.w3.org/1999/xlink" x="0px" y="0px"
	 viewBox="0 0 100 100" style="enable-background:new 0 0 100 100;" xml:space="preserve">
<style type="text/css">
	.st0{display:none;}
	.st1{display:inline;}
	.st2{fill:#FFFFFF;stroke:#AAAAAA;stroke-width:60;}
	.st3{fill:#FFFFFF;}
	.st4{fill:#F0F0F0;}
	.st5{fill:#7A7A7A;}
</style>
<g id="t-shirt-loading" class="st0">
	<title>tshirt</title>
	<g class="st1">
		<g>
			<path class="st2" d="M-110.1,52.1V6l-5-1.5c0,0.7-5.3,1.3-11.9,1.3c-6.6,0-11.9-0.6-11.9-1.3l-5,1.5v46.1H-110.1z"/>
		</g>
		<polygon class="st2" points="-155.8,9.6 -174.5,17.5 -171.7,39.9 -155.8,37.8 -155.8,52.3 -143.7,52.3 -143.7,6 		"/>
		<polygon class="st2" points="-98.2,9.6 -110.3,6 -110.3,52.3 -98.2,52.3 -98.2,37.8 -82.3,39.9 -79.5,17.5 		"/>
		<g>
			<polygon class="st2" points="-144,52 -144,68.4 -144,96 -109.9,96 -109.9,68.4 -109.9,52 			"/>
			<polygon class="st2" points="-155.8,52 -155.8,68.4 -155.8,96 -143.7,96 -143.7,68.4 -143.7,52 			"/>
			<polygon class="st2" points="-110.3,52 -110.3,68.4 -110.3,96 -98.2,96 -98.2,68.4 -98.2,52 			"/>
		</g>
	</g>
	<g class="st1">
		<g>
			<path class="st3" d="M-110.1,52.1V6l-5-1.5c0,0.7-5.3,1.3-11.9,1.3c-6.6,0-11.9-0.6-11.9-1.3l-5,1.5v46.1H-110.1z"/>
			<path d="M-127,5.8c-6.6,0-11.9-0.6-11.9-1.3c0,3.3,5.3,5.9,11.9,5.9c6.6,0,11.9-2.6,11.9-5.9C-115.2,5.2-120.5,5.8-127,5.8z"/>
			<path class="st4" d="M-115.2,4.5c0,3.3-5.3,5.9-11.9,5.9c-6.6,0-11.9-2.6-11.9-5.9l-1.6,0.5c0.4,4.1,6.3,7.4,13.4,7.4
				s13-3.3,13.4-7.4L-115.2,4.5z"/>
			<g>
				<rect x="-115.1" y="27.8" width="1" height="5.9"/>
				<g>
					<path d="M-135.7,27.8c0.4,0,0.8,0.1,1.1,0.3c0.4,0.1,0.7,0.4,1,0.6c0.3,0.3,0.5,0.6,0.7,1c0.2,0.4,0.3,0.8,0.3,1.2
						c0,0.2,0,0.4-0.1,0.7h-4.2c0.3,0.5,0.8,0.8,1.3,0.8c0.4,0,0.7-0.1,1-0.4h1.8c-0.3,0.6-0.8,1.1-1.3,1.5c-0.5,0.3-1,0.5-1.6,0.5
						c-0.4,0-0.8-0.1-1.2-0.3c-0.4-0.1-0.7-0.4-1-0.6c-0.3-0.3-0.5-0.6-0.6-1c-0.2-0.4-0.2-0.8-0.3-1.2c0-0.4,0.1-0.8,0.3-1.2
						c0.1-0.4,0.4-0.7,0.6-1c0.3-0.3,0.6-0.5,1-0.7C-136.5,27.8-136.1,27.8-135.7,27.8z M-134.4,30.1c-0.1-0.2-0.3-0.4-0.5-0.6
						c-0.5-0.2-1-0.2-1.5,0c-0.2,0.1-0.4,0.3-0.5,0.6H-134.4z"/>
					<path d="M-129.6,27.8c0.4,0,0.8,0.1,1.1,0.3c0.4,0.1,0.7,0.4,1,0.6c0.3,0.3,0.5,0.6,0.7,1c0.2,0.4,0.3,0.8,0.3,1.2
						c0,0.2,0,0.4-0.1,0.7h-4.2c0.3,0.5,0.8,0.8,1.3,0.8c0.4,0,0.7-0.1,1-0.4h1.8c-0.3,0.6-0.8,1.1-1.3,1.5c-0.5,0.3-1,0.5-1.6,0.5
						c-0.4,0-0.8-0.1-1.2-0.3c-0.4-0.1-0.7-0.4-1-0.6c-0.3-0.3-0.5-0.6-0.6-1c-0.2-0.4-0.2-0.8-0.3-1.2c0-0.4,0.1-0.8,0.3-1.2
						c0.1-0.4,0.4-0.7,0.6-1c0.3-0.3,0.6-0.5,1-0.7C-130.4,27.8-130,27.8-129.6,27.8z M-128.3,30.1c-0.1-0.2-0.3-0.4-0.5-0.6
						c-0.5-0.2-1-0.2-1.5,0c-0.2,0.1-0.4,0.3-0.5,0.6H-128.3z"/>
					<path d="M-124.9,27.9v0.3c0.3-0.3,0.7-0.4,1.1-0.4c0.3,0,0.6,0.1,0.8,0.2c0.3,0.2,0.5,0.4,0.7,0.7c0.2-0.3,0.4-0.5,0.7-0.7
						c0.3-0.1,0.6-0.2,0.9-0.2c0.2,0,0.5,0.1,0.7,0.2c0.2,0.1,0.5,0.3,0.6,0.5c0.2,0.2,0.3,0.5,0.5,0.7c0.1,0.3,0.2,0.6,0.2,0.9v3.7
						h-1.5V30c0-0.2-0.1-0.4-0.3-0.5c-0.1-0.1-0.3-0.2-0.5-0.2c-0.2,0-0.4,0.1-0.6,0.2c-0.1,0.1-0.2,0.3-0.3,0.5v3.7h-1.6V30
						c0-0.2-0.1-0.4-0.3-0.5c-0.1-0.1-0.3-0.2-0.5-0.2c-0.2,0-0.4,0.1-0.5,0.2c-0.1,0.1-0.3,0.3-0.3,0.5v3.7h-1.5v-5.8L-124.9,27.9
						L-124.9,27.9z"/>
					<path d="M-116.7,27.8V29h-1.5v-1.2H-116.7z M-116.7,29.7v4h-1.5v-4H-116.7z"/>
					<path d="M-114.9,27.8v5.9h-1.5v-5.9H-114.9z"/>
					<path d="M-113,27.8v5.9h-1.5v-5.9H-113z"/>
					<polygon points="-140.7,27 -140.7,33.7 -139,33.7 -139,27 -136.8,27 -136.8,25.3 -142.7,25.3 -142.7,27 					"/>
				</g>
				<g>
					<path d="M-114.8,25.3h0.3V25l-0.1-3.3h-0.2l-0.1,3.3L-114.8,25.3L-114.8,25.3z"/>
					<path d="M-114.7,25.8c0.1,0,0.2-0.1,0.2-0.2s-0.1-0.2-0.2-0.2c-0.1,0-0.2,0.1-0.2,0.2S-114.8,25.8-114.7,25.8z"/>
					<path d="M-115,25.6l-0.3,0.1l-2.8,1.7l0.1,0.1l2.9-1.5l0.2-0.2C-115,25.8-115,25.7-115,25.6z"/>
					<path d="M-114.7,26h-0.2l-0.1,7.8h0.5l-0.1-7.8L-114.7,26z"/>
					<path d="M-114,25.7l-0.3-0.1c0,0.1,0,0.2-0.1,0.2l0.2,0.2l2.9,1.5l0.1-0.1L-114,25.7z"/>
				</g>
			</g>
		</g>
		<polygon class="st3" points="-155.8,9.6 -174.5,17.5 -171.7,39.9 -155.8,37.8 -155.8,52.3 -143.7,52.3 -143.7,6 		"/>
		<polygon class="st3" points="-98.2,9.6 -110.3,6 -110.3,52.3 -98.2,52.3 -98.2,37.8 -82.3,39.9 -79.5,17.5 		"/>
		<g>
			<polygon class="st3" points="-144,52 -144,68.4 -144,96 -109.9,96 -109.9,68.4 -109.9,52 			"/>
			<polygon class="st3" points="-155.8,52 -155.8,68.4 -155.8,96 -143.7,96 -143.7,68.4 -143.7,52 			"/>
			<polygon class="st3" points="-110.3,52 -110.3,68.4 -110.3,96 -98.2,96 -98.2,68.4 -98.2,52 			"/>
		</g>
	</g>
	<g class="st1">
		<g>
			<path class="st5" d="M66.8,52.1V6l-5-1.5c0,0.7-5.3,1.3-11.9,1.3S38.1,5.2,38.1,4.5l-5,1.5v46.1H66.8z"/>
			<path class="st5" d="M50,5.8c-6.6,0-11.9-0.6-11.9-1.3c0,3.3,5.3,5.9,11.9,5.9s11.9-2.6,11.9-5.9C61.8,5.2,56.5,5.8,50,5.8z"/>
			<path class="st5" d="M61.8,4.5c0,3.3-5.3,5.9-11.9,5.9S38.1,7.8,38.1,4.5L36.5,5c0.4,4.1,6.3,7.4,13.4,7.4S63,9.1,63.4,5
				L61.8,4.5z"/>
		</g>
		<polygon class="st5" points="21.2,9.6 2.5,17.5 5.2,39.9 21.2,37.8 21.2,52.3 33.3,52.3 33.3,6 		"/>
		<polygon class="st5" points="78.8,9.6 66.7,6 66.7,52.3 78.8,52.3 78.8,37.8 94.7,39.9 97.5,17.5 		"/>
		<g>
			<polygon class="st5" points="33,52 33,68.4 33,96 67,96 67,68.4 67,52 			"/>
			<polygon class="st5" points="21.2,52 21.2,68.4 21.2,96 33.3,96 33.3,68.4 33.3,52 			"/>
			<polygon class="st5" points="66.7,52 66.7,68.4 66.7,96 78.8,96 78.8,68.4 78.8,52 			"/>
		</g>
	</g>
</g>
<g id="Layer_2">
	<rect x="22" y="53" width="28" height="42"/>
	<rect x="22" y="5" width="28" height="48"/>
	<rect x="-10" y="90" width="10" height="10"/>
	<rect x="-5" y="85" width="5" height="5"/>
</g>
</svg>
