<svg id="t-shirt-loading" data-name="T-Shirt Loading" xmlns="http://www.w3.org/2000/svg" width="100" height="100" viewBox="0 0 2396.34 2192.43">
    <defs>
        <style>
            @keyframes top_left_side {
                0%  {transform: rotateY(0deg); fill: #fff;}

                15%  {transform: rotateY(0deg); fill: #fff;}
                18.5%  {fill: #ddd;}
                22%  {transform: rotateY(180deg); fill: #f0f0f0;}

                39.5% {opacity: 1;}
                40.5% {opacity: 0;}
                59.5% {opacity: 0;}
                60.5% {opacity: 1;}
                
                78%  {transform: rotateY(180deg); fill: #e0e0e0;}
                81.5%  {fill: #ddd;}
                85%  {transform: rotateY(0deg); fill: #fff;}
                
                100%  {transform: rotateY(0deg); fill: #fff;}
            }

            @keyframes top_right_side {
                0%  {transform: rotateY(0deg); fill: #fff;}

                21%  {transform: rotateY(0deg); fill: #fff;}
                24.5%  {fill: #ddd;}
                28%  {transform: rotateY(180deg); fill: #e0e0e0;}

                39.5% {opacity: 1;}
                40.5% {opacity: 0;}
                59.5% {opacity: 0;}
                60.5% {opacity: 1;}

                72%  {transform: rotateY(180deg); fill: #f0f0f0;}
                75.5%  {fill: #ddd;}
                79%  {transform: rotateY(0deg); fill: #fff;}
                
                100%  {transform: rotateY(0deg); fill: #fff;}
            }

            @keyframes bottom_left_side {
                0%  {transform: rotateY(0deg); fill: #fff;}

                15%  {transform: rotateY(0deg); fill: #fff;}
                18.5%  {fill: #ddd;}
                22%  {transform: rotateY(180deg); fill: #f0f0f0;}

                31.45% {opacity: 1;}
                31.55% {opacity: 0;}
                68.45% {opacity: 0;}
                68.55% {opacity: 1;}
                
                78%  {transform: rotateY(180deg); fill: #e0e0e0;}
                81.5%  {fill: #ddd;}
                85%  {transform: rotateY(0deg); fill: #fff;}
                
                100%  {transform: rotateY(0deg); fill: #fff;}
            }

            @keyframes bottom_right_side {
                0%  {transform: rotateY(0deg); fill: #fff;}

                21%  {transform: rotateY(0deg); fill: #fff;}
                24.5%  {fill: #ddd;}
                28%  {transform: rotateY(180deg); fill: #e0e0e0;}

                31.45% {opacity: 1;}
                31.55% {opacity: 0;}
                68.45% {opacity: 0;}
                68.55% {opacity: 1;}

                72%  {transform: rotateY(180deg); fill: #f0f0f0;}
                75.5%  {fill: #ddd;}
                79%  {transform: rotateY(0deg); fill: #fff;}
                
                100%  {transform: rotateY(0deg); fill: #fff;}
            }

            @keyframes bottom {
                0% {transform: rotateX(0deg);}
                
                28% {transform: rotateX(0deg);}
                31.5%  {fill: #ddd;}
                35% {transform: rotateX(180deg);}

                39.5% {opacity: 1;}
                40.5% {opacity: 0;}
                59.5% {opacity: 0;}
                60.5% {opacity: 1;}

                65% {transform: rotateX(180deg);}
                68.5%  {fill: #ddd;}
                72% {transform: rotateX(0deg);}

                100% {transform: rotateX(0deg);}
            }

            @keyframes flip {
                0% {transform: rotateY(0deg);}

                5% {transform: rotateY(0deg);}
                15% {transform: rotateY(180deg);}

                35% {transform: rotateY(180deg);}
                45% {transform: rotateY(0deg);}
                
                55% {transform: rotateY(0deg);}
                65% {transform: rotateY(180deg);}

                85% {transform: rotateY(180deg);}
                95% {transform: rotateY(0deg);}

                100% {transform: rotateY(0deg);}
            }

            @keyframes front_details {
                0% {opacity: 1;}

                9.5% {opacity: 1;}
                10.5% {opacity: 0;}
                
                39.5% {opacity: 0;}
                40.5% {opacity: 1;}

                59.5% {opacity: 1;}
                60.5% {opacity: 0;}

                89.5% {opacity: 0;}
                90.5% {opacity: 1;}

                100% {opacity: 1;}
            }

            @keyframes front_details_folded {
                0% {opacity: 0;}
                
                39.5% {opacity: 0;}
                40.5% {opacity: 1;}

                59.5% {opacity: 1;}
                60.5% {opacity: 0;}

                100% {opacity: 0;}
            }

            @keyframes front_details_unfolded {
                0% {opacity: 1;}

                9.5% {opacity: 1;}
                10.5% {opacity: 0;}

                89.5% {opacity: 0;}
                90.5% {opacity: 1;}

                100% {opacity: 1;}
            }

            .tshirt,
            .tshirt .left_side_top,
            .tshirt .left_side_bottom,
            .tshirt .right_side_top,
            .tshirt .right_side_bottom,
            .tshirt .left_arm,
            .tshirt .right_arm,
            .tshirt .bottom,
            .tshirt .collor,
            .tshirt .neck_inner,
            .tshirt .teemill_logo {
                animation-duration: 6s;
                animation-iteration-count: infinite;
                animation-timing-function: ease-in-out;
            }

            .tshirt {
                transform-origin: 1198px 0px;
                animation-name: flip;
            }

            .tshirt .collor,
            .tshirt .neck_inner {
                animation-name: front_details;
            }

            .tshirt .teemill_logo.folded {
                animation-name: front_details_folded;
            }

            .tshirt .teemill_logo.unfolded {
                animation-name: front_details_unfolded;
            }

            .tshirt .left_side_top {
                transform-origin: 794px 0px;
                animation-name: top_left_side;
            }
            .tshirt .left_side_bottom {
                transform-origin: 794px 0px;
                animation-name: bottom_left_side;
            }

            .tshirt .right_side_top {
                transform-origin: 1603px 0px;
                animation-name: top_right_side;
            }
            .tshirt .right_side_bottom {
                transform-origin: 1603px 0px;
                animation-name: bottom_right_side;
            }

            .tshirt .bottom {
                transform-origin: 0px 1141px;
                animation-name: bottom;
            } 

            .tshirt .cls-1 {fill: #fff;}
            .outline .cls-1 {stroke: #aaa; stroke-width: 60px;}
            .neck_inner {fill: #e0e0e0;}
            .collor {fill: #f0f0f0;}
        </style>
    </defs>
    <title>tshirt</title>
    <g class="tshirt outline">
        <g class="centre_top">
            <path class="centre cls-1" d="M1684,1325V220l-121-36c0,17-127,30-284,30s-284-14-284-30L876,220V1325Z" transform="translate(-82 -184)"/>
        </g>
        <polygon class="left_side_top cls-1" points="509 122 61 312 126 847 509 798 509 1145 798 1145 798 37 509 122"/>
        <polygon class="right_side_top cls-1" points="1888 122 1599 37 1599 1145 1888 1145 1888 798 2270 847 2336 312 1888 122"/>
        <g class="bottom">
            <polygon class="centre_bottom cls-1" points="790 1137 790 1531 790 2192 1607 2192 1607 1531 1607 1137 790 1137"/>
            <polygon class="left_side_bottom cls-1" points="509 1137 509 1531 509 2192 798 2192 798 1531 798 1137 509 1137"/>
            <polygon class="right_side_bottom cls-1" points="1599 1137 1599 1531 1599 2192 1888 2192 1888 1531 1888 1137 1599 1137"/>
        </g>
    </g>
    <g class="tshirt">
        <g class="centre_top">
            <path class="centre cls-1" d="M1684,1325V220l-121-36c0,17-127,30-284,30s-284-14-284-30L876,220V1325Z" transform="translate(-82 -184)"/>
            <path class="neck_inner" d="M1280,215c-157,0-284-14-284-30,0,78,127,141,284,141s284-63,284-141C1564,201,1437,215,1280,215Z" transform="translate(-82 -184)"/>
            <path class="collor" d="M1564,184c0,78-127,141-284,141S996,262,996,184l-39,12c10,99,151,178,322,178s312-79,322-178Z" transform="translate(-82 -184)"/>
            <g class="teemill_logo unfolded">
                <rect class="cls-4" x="1484" y="559" width="25" height="141.63"/>
                <g>
                    <path class="cls-4" d="M1071,742a69,69,0,0,1,27,6,72,72,0,0,1,23,15,75,75,0,0,1,16,23,68,68,0,0,1,6,28,76,76,0,0,1-2,16H1040a36,36,0,0,0,31,19c9,0,17-3,25-10h43c-8,15-18,27-30,35s-25,12-38,12a68,68,0,0,1-28-6,75,75,0,0,1-23-15,73,73,0,0,1-15-23,69,69,0,0,1-6-28,68,68,0,0,1,6-28,75,75,0,0,1,15-23,76,76,0,0,1,23-16A66,66,0,0,1,1071,742Zm31,55a32,32,0,0,0-13-14,39,39,0,0,0-36,0,29,29,0,0,0-13,14Z" transform="translate(-82 -184)"/>
                    <path class="cls-4" d="M1219,742a69,69,0,0,1,27,6,72,72,0,0,1,23,15,75,75,0,0,1,16,23,68,68,0,0,1,6,28,76,76,0,0,1-2,16H1188a36,36,0,0,0,31,19c9,0,17-3,25-10h43c-8,15-18,27-30,35s-25,12-38,12a68,68,0,0,1-28-6,75,75,0,0,1-23-15,73,73,0,0,1-15-23,69,69,0,0,1-6-28,68,68,0,0,1,6-28,75,75,0,0,1,15-23,76,76,0,0,1,23-16A65,65,0,0,1,1219,742Zm31,55a32,32,0,0,0-13-14,39,39,0,0,0-36,0,29,29,0,0,0-13,14Z" transform="translate(-82 -184)"/>
                    <path class="cls-5" d="M1331,745v7a41,41,0,0,1,27-10,39,39,0,0,1,20,5,52,52,0,0,1,17,16,42,42,0,0,1,16-16,44,44,0,0,1,21-5,38,38,0,0,1,17,4,49,49,0,0,1,15,12,66,66,0,0,1,11,17,62,62,0,0,1,5,21v89h-36V796a18,18,0,0,0-7-13,19,19,0,0,0-11-5,17,17,0,0,0-14,5,21,21,0,0,0-6,12v89h-38V795a20,20,0,0,0-7-12,18,18,0,0,0-12-5,17,17,0,0,0-12,5,22,22,0,0,0-7,12v89h-36V744h36Z" transform="translate(-82 -184)"/>
                    <path class="cls-5" d="M1526,742v29h-36V742Zm0,45v97h-36V787Z" transform="translate(-82 -184)"/>
                    <path class="cls-5" d="M1571,742V884h-36V742Z" transform="translate(-82 -184)"/>
                    <path class="cls-5" d="M1615,742V884h-36V742Z" transform="translate(-82 -184)"/>
                    <polygon class="cls-4" points="870 540 870 700 911 700 911 540 963 540 963 499 821 499 821 540 870 540"/>
                </g>
                <g>
                    <path class="cls-4" d="M1572,683h8v-8l-3-78h-4l-3,78v8Z" transform="translate(-82 -184)"/>
                    <path class="cls-4" d="M1575,694a5,5,0,1,0-5-5A5,5,0,0,0,1575,694Z" transform="translate(-82 -184)"/>
                    <path class="cls-4" d="M1567,690l-8,2-66,41,2,3,69-36,5-5A8,8,0,0,1,1567,690Z" transform="translate(-82 -184)"/>
                    <path class="cls-4" d="M1575,698h-4l-2,188h12l-2-187Z" transform="translate(-82 -184)"/>
                    <path class="cls-4" d="M1591,691l-8-2a8,8,0,0,1-2,5l5,5,69,36,2-3Z" transform="translate(-82 -184)"/>
                </g>
            </g>
            <g class="teemill_logo folded">
                <svg xmlns="http://www.w3.org/2000/svg" xmlns:xlink="http://www.w3.org/1999/xlink" x="800" y="200" width="800" height="800" viewBox="0 0 2560 2560"><defs><style>.cls-1{fill:none;}.cls-2{fill:#7d645e;}.cls-3{fill:#918475;}.cls-4{fill:#412b2b;}.cls-5{fill:#a5988b;}.cls-6{fill:#493634;}.cls-13,.cls-19,.cls-22,.cls-6{opacity:0.6;}.cls-21,.cls-7{fill:#563830;}.cls-20,.cls-7{opacity:0.2;}.cls-19,.cls-8{fill:#948282;}.cls-17,.cls-9{fill:#4d3529;}.cls-10{fill:#563e34;}.cls-11{fill:#5b393a;}.cls-12,.cls-24{fill:#352a2b;}.cls-13{fill:#230d11;}.cls-14{clip-path:url(#clip-path);}.cls-15{fill:#1d1b1f;}.cls-16{clip-path:url(#clip-path-2);}.cls-17{opacity:0.8;}.cls-18{fill:#2e2d30;}.cls-23{fill:#282222;}.cls-24{font-size:461.1px;font-family:SegoeUI-Semilight, Segoe UI;}.cls-25{letter-spacing:-0.01em;}</style><clipPath id="clip-path"><path class="cls-1" d="M1037.14,708.81c3.11-10.18,22.88-25.54,66.73-28.63,23.66-1.28,34.14,12.46,42.77,23.78-6.47,9.88-20.13,21.62-44.57,25.58C1064.21,734.92,1044.2,719.95,1037.14,708.81Z"/></clipPath><clipPath id="clip-path-2"><path class="cls-1" d="M1460.76,681.49c-5.21-9.88-14-22.87-46.63-21.21-40,2-52.39,10.42-62.63,29.65,13.3,10.6,21.92,16.6,64.15,16.35C1446.58,706.11,1452.67,691.29,1460.76,681.49Z"/></clipPath></defs><title>ObiWan</title><g id="Hello_There_2" data-name="Hello There 2"><path class="cls-2" d="M1283.09,1298.6c97.74-4.23,156.22-116,176.35-188.81s108-110.22,104.79-284.65,16.93-352.7-54-462.92-104.47-139-123.16-138-417.15-69-508.24,228.54,74.08,582.76,169,661.83S1150.35,1304.35,1283.09,1298.6Z"/><path class="cls-3" d="M906,1291c-4.44.39-9.06.94-13.7,1.62a35,35,0,0,0-12.52,5.38c-15.95,11-22.45,96.9-42,229.3-23.72,161-15.1,352.94-15.1,352.94H908.5c-13.42-57-35.45-306.21-36.42-395.35C870.54,1342.82,886.85,1329.16,906,1291Z"/><path class="cls-4" d="M1015.47,1474.12c22,68.28,36.84,118.51,58.85,205.37,38.83-50.64,91.61-109.19,158.84-177.39q2.49-2.53,5.18-5.19c-151.77-84.55-426-311.52-101.27-343.68l-1.65-11.22C858.4,1145.38,970.85,1335.9,1015.47,1474.12Z"/><path class="cls-3" d="M2405.9,1770.69c-30.67,49.29-67.76,104.31-76.55,109.51h130.82C2462.49,1865.32,2414.94,1812.13,2405.9,1770.69Z"/><path class="cls-4" d="M1373.07,1136.46l3.13,15.82c290.4-10.26-31.84,239.89-137.86,344.64q-2.69,2.65-5.18,5.19c-67.24,68.2-120,126.75-158.84,177.39,12.86,50.76,28.19,114,48.87,200.71h75.24c42.8-76.65,269.08-424.82,310.77-503.17C1550.69,1299,1620.68,1100.64,1373.07,1136.46Z"/><path class="cls-5" d="M1074.32,1679.49c-22-86.86-36.8-137.09-58.85-205.37-44.62-138.23-157.08-328.74,120-332.1l4.29,0-3.05-18c-134.24,5.76-173.53,2.88-216.3,132.22A249.32,249.32,0,0,1,906,1291c-19.15,38.2-35.46,51.86-33.92,193.89,1,89.13,23,338.32,36.42,395.35h214.69C1102.5,1793.5,1087.18,1730.25,1074.32,1679.49Z"/><path class="cls-3" d="M128.85,1647.71c-14.54,11.11-34.26,38.75-35.72,45.35s24.14,58.51,49.56,86c-4.42-38.42-7.54-75.31-8.59-89.37C133.25,1678.5,130.89,1663.36,128.85,1647.71Z"/><path class="cls-5" d="M837.81,1527.26c19.51-132.41,26-218.34,42-229.3a35,35,0,0,1,12.52-5.38,40.78,40.78,0,0,1,5.68-.77c-3.11-5.88-16.13-17-29.49-15.18-39.76,5.39-51.48,21-59.24,23.84-111.36,40.61-290.82,69.37-421.17,126.87s-170.6,113.33-176.59,112.85c-19.12-1.53-75.24,24.44-82.78,43.49-5.47,13.8-3.06,39.53.14,64,2,15.65,4.41,30.79,5.25,42,1.05,14.05,4.17,51,8.59,89.37,4.62,40.17,10.67,82,17.29,101.12H822.72S814.09,1688.27,837.81,1527.26Z"/><path class="cls-5" d="M2405.9,1770.69c24.52-39.41,44.94-75.15,43.5-78.82-7.91-20.13-41-47.08-79.43-40.25-19.25,3.42-111.13-117.13-302.26-191.92-181.86-71.16-237.93-67.81-240.08-73.32-4.06-10.38-41.33-33.12-69.73-33.07-6.31,0-13.54,6.12-20.87,15.18-15.28,18.89-31,50.63-39.51,66.76-90.81,171.32-205.82,372.59-230.74,444.95h862.58C2338.14,1875,2375.23,1820,2405.9,1770.69Z"/><path class="cls-3" d="M1645.76,1321a92.58,92.58,0,0,1-28.77-19.63c26.71,164-120.47,393.35-196.22,578.87h46c24.92-72.36,139.93-273.63,230.74-444.95,8.55-16.14,24.24-47.87,39.51-66.76C1686.83,1320.48,1677.15,1335,1645.76,1321Z"/><path class="cls-5" d="M1617,1301.33a206,206,0,0,0-10.18-38.9c-7.86-19.82-17.32-42.92-33.65-67.27-39.53-58.94-71.88-87.48-207-74l3.59,15.81,3.34-.49c247.61-35.82,177.62,162.57,136.11,240.57-41.69,78.35-268,426.52-310.77,503.17h222.35C1496.52,1694.68,1643.7,1465.3,1617,1301.33Z"/><path class="cls-2" d="M1237.57,1499c71.52-66.37,289.32-234.57,244.4-294.23-39.77-45.42-541.27-211.33-531.2-161.73s33.33,169,27.58,192.72C994.51,1327.07,1099.46,1416.08,1237.57,1499Z"/><path class="cls-6" d="M1219.22,888.18c-.13,2.75,4.63,9.44,17.75,9.2s26.42-6.43,21.4-11.07-12.82-11-23.07-8.39S1219.41,884,1219.22,888.18Z"/><path class="cls-6" d="M1337.41,885.12c.12,2.84-4.2,9.73-16.07,9.48S1297.41,888,1302,883.19s11.61-11.32,20.9-8.64S1337.24,880.84,1337.41,885.12Z"/><path class="cls-7" d="M1483.4,673.83c-5.27-13.57-24.2-33.78-65.65-33.78-31.91.69-52.43,7.58-66.1,17.44-14.64,10.56-18.12,27.61-25.91,37.91-17.71,23.44.06,15.75,38.34,15.93,10.78.05,21.09,7.71,49.12,7.15S1473.34,703.54,1483.4,673.83Z"/><path class="cls-8" d="M1460.76,681.49c-5.21-9.88-14-22.87-46.63-21.21-40,2-52.39,10.42-62.63,29.65,13.3,10.6,21.92,16.6,64.15,16.35C1446.58,706.11,1452.67,691.29,1460.76,681.49Z"/><path class="cls-7" d="M1133.82,664.48c-14.53-6.88-117.89,2.16-121.72,43.61s65.84,37.62,85.63,35.7,63.64-13.12,102.81-18.81c18.15-2.16-27-19-37.74-30.79S1142.92,668.79,1133.82,664.48Z"/><path class="cls-8" d="M1037.14,708.81c3.11-10.18,22.88-25.54,66.73-28.63,23.66-1.28,34.14,12.46,42.77,23.78-6.47,9.88-20.13,21.62-44.57,25.58C1064.21,734.92,1044.2,719.95,1037.14,708.81Z"/><path class="cls-2" d="M1550,942.32c-5.25,9,10.53,13,16.28,11.78s28.75-18.69,28-38.46-7.19-21.92-6.29-37.38c.39-6.75,3.21-21.82,2.88-37.08-.44-19.69-4-39.69-2.7-42.53,2.34-5,19.41-17.79,18.51-58s-7.91-55.35-31.63-61.46-12,60.41-11.84,87.45C1563.45,797,1566.57,913.83,1550,942.32Z"/><path class="cls-7" d="M1560.71,885.54c-2.15,5.69,4.74,8.07,7.22,7.23s10.23-.91,9.65-13.29-1.43-24.74-1.25-34.43c.08-4.23,1.1-13.7.74-23.26-.46-12.33-2.28-24.83-1.75-26.62.94-3.17,21.11-21.49,19.43-61-1.08-25.21-17.31-34-27.67-37.57s-3.46,61.81-3,78.74C1564.58,794.38,1567.52,867.53,1560.71,885.54Z"/><path class="cls-9" d="M963.78,1094.64c-11-30-55.3-113-33.37-136.38,10.81-11.54-21.25-28.71-36.92-15.44-12.2-5.05-29.54-4.62-36.43,10.38-24,52.18,48.75,157.07,85.27,157.17-1.11-2.89-2.52-6.25-4.13-10,6.28,3.58,11.73,5.28,15.73,4.48-3.67-5.93-9.26-14.07-15.63-23.43C947.51,1089.59,956.44,1094.53,963.78,1094.64Z"/><path class="cls-10" d="M1288.6,1414.68c67.57,0,204.14-125.79,207.74-205.58s20.85-117.17,41-158.86,27.92-137.2,25.76-200.45c-7.19,61.46-21.45,163.07-107,157.32C1422.3,940,1364,895.46,1323.82,910.56c-20.58,7.74-23.36,20.73-46.72,24.32-22.76,3.5-37.15-9-58.58-15.1-33.9-9.58-119,62.18-149.87,131.9-20.85.72-166-76.19-181.55-264.7l-8.22,3.77c-1.44,54.63,37.38,243,81.94,301.9s82.66,112.14,87,146.64C1059.08,1329.51,1198,1414.68,1288.6,1414.68Z"/><path class="cls-2" d="M1422.54,1052.4c-10.66-42.19-64.21-61.34-135.62-54.63s-155.26,64.21-155.26,106.86c22.16,39.06,89.87,67.45,106.38,14.38,1.92-13.42,96.93-23.27,102.55-14.38C1380.25,1143,1416.19,1103.73,1422.54,1052.4Z"/><path class="cls-11" d="M1409.19,1027.57c-22.21-24.62-66.86-35-122.27-29.79-44.78,4.21-94.45,28.39-125.27,56.36,16.41,17.71,61.58,44.92,122.88,38.52C1346.48,1086.19,1394.32,1042.85,1409.19,1027.57Z"/><path class="cls-12" d="M1185.27,1049.53c6.47,4,63.35,11.39,93.63,8.81,50.5-4.31,98.48-23.18,102.43-28.75-9.52-11-48.52-30.91-100.81-26.6S1189.23,1038.67,1185.27,1049.53Z"/><path class="cls-9" d="M1583.16,684.58c52.43-35,48.88-182.58,15.81-271.71S1485.4,164.15,1422.15,178.53c-10.06-51.75-171.08-112.14-324.9-47.44s-397,188.11-323.47,609.55c7.19,41.21,57.51,51.25,57.51,33.07,0-39.53-27.31-300.46,75.48-421.94s363-179,493.83-138.73,184,271.71,178.27,374.5S1561.6,699,1583.16,684.58Z"/><path class="cls-2" d="M917,958.72c-.09,16.34,3.46,44.69-25.88,43.13-23.45-1.24-54.39-12.22-58.22-46.24-1.22-10.87-8.39-23-12.7-45s-1.68-25.16-7.43-43.13S748.41,749.78,782.92,727.5s48.52,22.28,65.41,37S917.15,925.61,917,958.72Z"/><path class="cls-9" d="M1586.76,460.31c-10.06-61.82-49.6-124.71-74-174s-89.85-80.51-102.37-87.34c-2.09-1.14-3.86-1.26-5.37-.49a11.77,11.77,0,0,0-2.24-2.74c-7.54-6.46-107.48-11.31-170.74-10-5.06-11.51-11.22-19.6-16.41-21.42-10.68-3.74-132.39,38-184.72,62.25-9.43-6.65-18-10.1-23.14-9.15-13,2.42-127.11,134.82-141.25,165-1.47,3.12-1.85,7-1.33,11.46-27.9,50-66.19,128.8-70.73,151a20.1,20.1,0,0,0,.9,10.05,43.88,43.88,0,0,0-15.07,7.49c-18.33,15.1,3.59,110,.36,124.35s-6.26,44,5,47.8c42.13,14,94.6,127.1,107.9,122.2-6.83-8.28-8.35-40.9-6.44-69.75,20-13.85,21.36-66.27,32.18-119.88,16.41-25,32-62.92,42.54-103.83,3,41.14-3,80.42-22.14,97,28.86-4.51,61.48-50.81,74.71-111.24,28.58-3.89,74.88-56.08,108.55-118.14-6.75,34-15.88,65.22-25.51,84.89,14.09-1.73,34.88-31.44,54.18-72.62,5.21,16.31,12.35,28.6,21.11,34.23-4.47-39.54,18.54-110.36,50.48-148,71.52-1.89,157-18.93,173.07-47.35.42-.75.82-1.51,1.23-2.27,8.22,36.8,47,69,78.32,113,35.46,49.84,57.51,151.43,55.59,184s15.33,174.05,31.59,195c15.13-48.76,37.77-45.53,23.75-110.94C1602.21,632.82,1596.82,522.12,1586.76,460.31Zm-566.55,43.86a438.79,438.79,0,0,0,33.12-50.58c-9.77,34.28-23.25,66.5-37.4,87.88A261.42,261.42,0,0,0,1020.21,504.17Z"/><circle cx="1097.73" cy="700.34" r="18.46"/><path class="cls-13" d="M1174.94,718.8c-.8,2.92-40.12,3.35-42.58-.68,9-6.62,14.28-13.54,13.73-14.89C1156.69,703.83,1175.75,715.85,1174.94,718.8Z"/><g class="cls-14"><path class="cls-15" d="M1097.73,726.71a26.37,26.37,0,1,1,26.37-26.37A26.4,26.4,0,0,1,1097.73,726.71Zm0-36.93a10.56,10.56,0,1,0,10.56,10.56A10.57,10.57,0,0,0,1097.73,689.78Z"/></g><g class="cls-16"><path class="cls-15" d="M1414.13,652.42a26.37,26.37,0,1,0,26.37,26.37A26.4,26.4,0,0,0,1414.13,652.42Z"/></g><circle cx="1414.13" cy="678.79" r="9.14"/><path class="cls-13" d="M1337.24,704.1c2.09,1.6,27.62-.51,29.17-4.31-8.65-4.42-14.76-9.23-14.15-11.27C1343.26,690.51,1335.09,702.46,1337.24,704.1Z"/><path class="cls-17" d="M1344.31,610.69c5.93,17.79,36.18,10.66,56.67,4.19s74.52-32.11,114.41,25.16c-11.14-61-72.72-78.09-125.43-63.5C1366.59,583,1339.22,595.43,1344.31,610.69Z"/><path class="cls-17" d="M1170.76,623.16c-7.51,20.7-32.48,14.44-58.42,6.91S1021.53,603,971,669.65c14.11-70.94,88.52-101.16,155.28-84.17C1155.88,593,1177.2,605.41,1170.76,623.16Z"/><path class="cls-18" d="M1093.22,720.47c-4-.56-7.5-2.5-9.24-5,0-.78,3.33-3.65,4-3.65a12.64,12.64,0,0,0,6.38,3.28C1094.7,715.85,1093.92,720,1093.22,720.47Z"/><path class="cls-18" d="M1410.13,698.79c-4-.56-7.5-2.5-9.24-5,0-.78,3.33-3.65,4-3.65a12.64,12.64,0,0,0,6.38,3.28C1411.61,694.16,1410.83,698.29,1410.13,698.79Z"/><path class="cls-19" d="M1228.5,1016.72c32,5.48,85.06,1.37,110-8.69C1308.34,999.89,1267.32,998.41,1228.5,1016.72Z"/><path class="cls-7" d="M900.58,901.21c-.06,10.89,2.31,29.8-17.25,28.76-15.64-.83-24-11.87-26.57-34.55-.82-7.25-9.3-13.34-12.17-28s-23.77-18.91-27.6-30.9-38.42-84.11-15.42-99,42,24.39,53.24,34.21S900.7,879.13,900.58,901.21Z"/><g class="cls-20"><path class="cls-21" d="M1325.91,864.74c-4.51,0-8.95.63-12.56,2.7s-6.46,5.09-9.33,8.46-6,7-10.1,9.78a27.85,27.85,0,0,1-6.71,3.32,32.28,32.28,0,0,1-7.3,1.45,24.1,24.1,0,0,1-7.63-.64,27.82,27.82,0,0,1-6.93-2.85,72.53,72.53,0,0,1-11-8.4,53.11,53.11,0,0,0-10.42-7.55,25.4,25.4,0,0,0-12.61-2.68,22,22,0,0,1,6.76-1.2,23.45,23.45,0,0,1,7,1c4.58,1.36,8.62,3.94,12.34,6.49s7.22,5.21,10.86,7a20.44,20.44,0,0,0,11.22,2.44,24.85,24.85,0,0,0,11.21-3.5c3.43-2,6.46-5.06,9.75-8.17a52.13,52.13,0,0,1,5.33-4.51,24,24,0,0,1,6.39-3.35,20.5,20.5,0,0,1,7-1A25.91,25.91,0,0,1,1325.91,864.74Z"/></g><g class="cls-20"><path class="cls-21" d="M1334.89,895.35a31.23,31.23,0,0,0,9.13,1.2,13.92,13.92,0,0,0,8.17-2.76,12.19,12.19,0,0,0,4.19-7.15,19.4,19.4,0,0,0,.48-4.31,31.3,31.3,0,0,0-.27-4.41,48.79,48.79,0,0,0-2-8.76,47.94,47.94,0,0,0-3.51-8.25,155.8,155.8,0,0,0-10.11-15.38,299.39,299.39,0,0,1-20.1-31.8c-3-5.5-5.8-11.14-8.49-16.8s-5.22-11.4-7.64-17.18c-4.78-11.58-9.14-23.31-13.2-35.13a190.39,190.39,0,0,1-8.65-36.77,115.84,115.84,0,0,1-.89-18.94,83,83,0,0,1,2.76-18.79,60.33,60.33,0,0,1,3.22-9,52.16,52.16,0,0,1,4.73-8.23A47.43,47.43,0,0,1,1306.26,640a49.85,49.85,0,0,0-12.36,13.68,50.39,50.39,0,0,0-4,8.25,60.73,60.73,0,0,0-2.65,8.76c-2.64,12-2,24.42-.12,36.51a199.66,199.66,0,0,0,9.44,35.62c4.12,11.71,8.53,23.3,13.33,34.72s9.93,22.68,15.66,33.62q4.3,8.2,9.09,16.12c3.22,5.27,6.59,10.44,10.06,15.61s7.05,10.34,10,16.1a51.33,51.33,0,0,1,3.54,9,52.35,52.35,0,0,1,1.8,9.5,30.26,30.26,0,0,1,0,4.91,22.42,22.42,0,0,1-.84,4.91,14.55,14.55,0,0,1-5.72,8.22,15.16,15.16,0,0,1-9.49,2.23A27.28,27.28,0,0,1,1334.89,895.35Z"/></g><g class="cls-20"><path class="cls-21" d="M1224.37,898.53a28.69,28.69,0,0,1-8.91,2.46,19.18,19.18,0,0,1-9.4-1.26,15.13,15.13,0,0,1-7.32-6.49,19,19,0,0,1-1.85-4.61,26,26,0,0,1-.7-4.85,36.62,36.62,0,0,1,1-9.54,51.73,51.73,0,0,1,2.94-9c2.5-5.84,5.83-11,8.7-16.33a141,141,0,0,0,7.65-16.28,169,169,0,0,0,5.61-17.13c1.57-5.82,3-11.69,4.21-17.62s2.24-11.91,3.21-17.89c1.94-12,3.39-24.11,4.61-36.11a169.48,169.48,0,0,0-.83-36c-1.63-11.92-4.34-23.79-9.26-34.81a79.43,79.43,0,0,0-9.1-15.58A53.85,53.85,0,0,0,1201.7,645,50.81,50.81,0,0,1,1216,656.53a72.22,72.22,0,0,1,10.29,15.39,111.34,111.34,0,0,1,6.9,17.22q1.37,4.43,2.45,9c.7,3,1.29,6.05,1.81,9.1a162.76,162.76,0,0,1,1.9,37c-.19,3.12-.55,6.15-.85,9.2s-.66,6.09-1,9.14c-.71,6.09-1.54,12.17-2.46,18.25a300.08,300.08,0,0,1-7.8,36.1,174.14,174.14,0,0,1-6.14,17.54,132.37,132.37,0,0,1-8.33,16.64c-3.1,5.35-6.52,10.38-9,15.73a42.55,42.55,0,0,0-4.21,16.86,22.8,22.8,0,0,0,.37,4.23,16.49,16.49,0,0,0,1.33,4,12.83,12.83,0,0,0,5.73,5.9,18.46,18.46,0,0,0,8.44,2A32.91,32.91,0,0,0,1224.37,898.53Z"/></g><g class="cls-22"><path class="cls-23" d="M1237.57,1499c-14.49,14.32-28.93,28.62-43.18,43.11s-28.13,29.33-41.9,44.23-27.5,29.85-40.77,45.18c-6.62,7.68-13.19,15.4-19.5,23.33l-4.71,6c-1.59,2-3,4.06-4.54,6.09l-2.26,3.07c-.79,1-1.47,2.06-2.16,3.13-1.38,2.13-2.81,4.23-4.23,6.36a143.07,143.07,0,0,1,7.06-13.59l1.94-3.31c.64-1.11,1.29-2.22,2-3.27l4.22-6.41c.71-1.06,1.4-2.15,2.12-3.2l2.24-3.11,4.48-6.22c1.46-2.1,3.08-4.07,4.63-6.1l4.69-6.06c12.72-16,26.24-31.29,40.27-46.08,3.5-3.7,7-7.38,10.64-11s7.16-7.25,10.82-10.8c7.24-7.18,14.62-14.2,22-21.22l11.2-10.4,11.4-10.18c3.84-3.35,7.73-6.64,11.62-9.93S1233.56,1502.17,1237.57,1499Z"/></g><text class="cls-24" transform="translate(142.69 2380)">Hello The<tspan class="cls-25" x="1882.69" y="0">r</tspan><tspan x="2032.86" y="0">e</tspan></text></g></svg>
            </g>
        </g>
        <polygon class="left_side_top cls-1" points="509 122 61 312 126 847 509 798 509 1145 798 1145 798 37 509 122"/>
        <polygon class="right_side_top cls-1" points="1888 122 1599 37 1599 1145 1888 1145 1888 798 2270 847 2336 312 1888 122"/>
        <g class="bottom">
            <polygon class="centre_bottom cls-1" points="790 1137 790 1531 790 2192 1607 2192 1607 1531 1607 1137 790 1137"/>
            <polygon class="left_side_bottom cls-1" points="509 1137 509 1531 509 2192 798 2192 798 1531 798 1137 509 1137"/>
            <polygon class="right_side_bottom cls-1" points="1599 1137 1599 1531 1599 2192 1888 2192 1888 1531 1888 1137 1599 1137"/>
        </g>
    </g>
</svg>
