<svg id="t-shirt-base" xmlns="http://www.w3.org/2000/svg" width="100" height="100" viewBox="0 0 100 100">
  <defs>
    <style>
      .cls-1 {
        fill: #fff;
      }

      .cls-2 {
        fill: #e0e0e0;
      }

      .cls-3 {
        fill: #f0f0f0;
      }
    </style>
  </defs>
  <title>tshirt2</title>
  <rect id="area" width="100" height="100"/>
  <g id="top">
    <path id="centre-top" class="cls-1" d="M62,5c0,.6-5.4,1-12,1S38,5.6,38,5L34,6V53H66V6Z"/>
    <g id="details">
      <path id="collar-outer" class="cls-2" d="M62,5c0,2.2-5.4,4-12,4S38,7.2,38,5l-1.5.4C37,8.5,42.8,11,50,11S63,8.5,63.5,5.4Z"/>
      <path id="collar-inner" class="cls-3" d="M50,6c-6.6,0-12-.4-12-1,0,2.2,5.4,4,12,4S62,7.2,62,5C62,5.6,56.6,6,50,6Z"/>
    </g>
    <g id="details-unfolded">
      <rect id="design" x="35" y="15" width="30" height="30"/>
    </g>
    <g id="details-folded">
      <rect id="design-2" data-name="design" x="35" y="15" width="30" height="30"/>
    </g>
    <polygon id="left-top" class="cls-1" points="34 6 22 9 5 18 10 40 22 37.7 22 53 34 53 34 6"/>
    <polygon id="right-top" class="cls-1" points="66 6 78 9 95 18 90 40 78 37.7 78 53 66 53 66 6"/>
  </g>
  <g id="bottom">
    <rect id="centre-bottom" class="cls-1" x="34" y="53" width="32" height="42"/>
    <rect id="left-bottom" class="cls-1" x="22" y="53" width="12" height="42"/>
    <rect id="right-bottom" class="cls-1" x="66" y="53" width="12" height="42"/>
  </g>
</svg>
