<svg id="Layer_4" data-name="Layer 4" xmlns="http://www.w3.org/2000/svg" width="2396" height="2192" viewBox="0 0 2396 2192">
  <defs>
    <style>
      .cls-1 {
        fill: #fff;
      }

      .cls-1, .cls-2, .cls-3 {
        stroke: #000;
        stroke-miterlimit: 10;
      }

      .cls-2 {
        opacity: 0.2;
      }

      .cls-3 {
        opacity: 0.1;
      }

      .cls-4 {
        fill: #77b800;
      }

      .cls-5 {
        fill: #313331;
      }
    </style>
  </defs>
  <title>Untitled-1 [Recovered]</title>
  <polygon class="cls-1" points="1888 122 1603 37 1603 1141 1888 1141 1888 798 2330 847 2396 312 1888 122"/>
  <polygon class="cls-1" points="509 122 1 312 66 847 509 798 509 1141 794 1141 794 37 509 122"/>
  <g id="centre_top">
    <path id="centre" class="cls-1" d="M1684,1325V220l-121-36c0,17-127,30-284,30s-284-14-284-30L876,220V1325Z" transform="translate(-82 -184)"/>
    <path id="neck_inner" class="cls-2" d="M1280,215c-157,0-284-14-284-30,0,78,127,141,284,141s284-63,284-141C1564,201,1437,215,1280,215Z" transform="translate(-82 -184)"/>
    <path id="collor" class="cls-3" d="M1564,184c0,78-127,141-284,141S996,262,996,184l-39,12c10,99,151,178,322,178s312-79,322-178Z" transform="translate(-82 -184)"/>
  </g>
  <polygon id="left_side_Bottom" class="cls-1" points="509 1141 509 1531 509 2192 794 2192 794 1531 794 1141 509 1141"/>
  <polygon id="right_side_bottom" class="cls-1" points="1603 1141 1603 1531 1603 2192 1888 2192 1888 1531 1888 1141 1603 1141"/>
  <polygon id="centre_bottom" class="cls-1" points="794 1141 794 1531 794 2192 1603 2192 1603 1531 1603 1141 794 1141"/>
  <g>
    <rect class="cls-4" x="887" y="559" width="25" height="141.63"/>
    <g>
      <path class="cls-4" d="M1517,748a76,76,0,0,1,23,16,75,75,0,0,1,15,23,68,68,0,0,1,6,28,69,69,0,0,1-6,28,73,73,0,0,1-15,23,75,75,0,0,1-23,15,68,68,0,0,1-28,6c-13,0-26-4-38-12s-22-20-30-35h43c8,7,16,10,25,10a36,36,0,0,0,31-19H1419a76,76,0,0,1-2-16,68,68,0,0,1,6-28,75,75,0,0,1,16-23,72,72,0,0,1,23-15,69,69,0,0,1,27-6A66,66,0,0,1,1517,748Zm3,49a29,29,0,0,0-13-14,39,39,0,0,0-36,0,32,32,0,0,0-13,14Z" transform="translate(-82 -184)"/>
      <path class="cls-4" d="M1369,748a76,76,0,0,1,23,16,75,75,0,0,1,15,23,68,68,0,0,1,6,28,69,69,0,0,1-6,28,73,73,0,0,1-15,23,75,75,0,0,1-23,15,68,68,0,0,1-28,6c-13,0-26-4-38-12s-22-20-30-35h43c8,7,16,10,25,10a36,36,0,0,0,31-19H1272a76,76,0,0,1-2-16,68,68,0,0,1,6-28,75,75,0,0,1,16-23,72,72,0,0,1,23-15,69,69,0,0,1,27-6A65,65,0,0,1,1369,748Zm3,49a29,29,0,0,0-13-14,39,39,0,0,0-36,0,32,32,0,0,0-13,14Z" transform="translate(-82 -184)"/>
      <path class="cls-5" d="M1229,745h37V884h-36V795a22,22,0,0,0-7-12,17,17,0,0,0-12-5,18,18,0,0,0-12,5,20,20,0,0,0-7,12v89h-38V795a21,21,0,0,0-6-12,17,17,0,0,0-14-5,19,19,0,0,0-11,5,18,18,0,0,0-7,13v88h-36V795a62,62,0,0,1,5-21,66,66,0,0,1,11-17,49,49,0,0,1,15-12,38,38,0,0,1,17-4,44,44,0,0,1,21,5,42,42,0,0,1,16,16,52,52,0,0,1,17-16,39,39,0,0,1,20-5,41,41,0,0,1,27,10v-7Z" transform="translate(-82 -184)"/>
      <path class="cls-5" d="M1070,742v29h-36V742Zm0,45v97h-36V787Z" transform="translate(-82 -184)"/>
      <path class="cls-5" d="M1025,742V884H989V742Z" transform="translate(-82 -184)"/>
      <path class="cls-5" d="M981,742V884H944V742Z" transform="translate(-82 -184)"/>
      <polygon class="cls-4" points="1575 540 1575 499 1434 499 1434 540 1486 540 1486 700 1526 700 1526 540 1575 540"/>
    </g>
    <g>
      <path class="cls-4" d="M988,677v-3l-3-78h-4l-3,78v8h8Z" transform="translate(-82 -184)"/>
      <path class="cls-4" d="M989,689a5,5,0,1,0-5,5A5,5,0,0,0,989,689Z" transform="translate(-82 -184)"/>
      <path class="cls-4" d="M991,694l5,5,69,36,2-3-66-41-8-2A8,8,0,0,1,991,694Z" transform="translate(-82 -184)"/>
      <path class="cls-4" d="M981,697l-2,187h12l-2-188h-8Z" transform="translate(-82 -184)"/>
      <path class="cls-4" d="M903,733l2,3,69-36,5-5a8,8,0,0,1-2-5l-8,2Z" transform="translate(-82 -184)"/>
    </g>
  </g>
</svg>
