<svg id="t-shirt-loading" data-name="T-Shirt Loading" xmlns="http://www.w3.org/2000/svg" width="100" height="100" viewBox="0 0 2396.34 2192.43">
    <defs>
        <style>
            @keyframes top_left_side {
                0%  {transform: rotateY(0deg); fill: #fff;}

                15%  {transform: rotateY(0deg); fill: #fff;}
                18.5%  {fill: #ddd;}
                22%  {transform: rotateY(180deg); fill: #f0f0f0;}

                39.5% {opacity: 1;}
                40.5% {opacity: 0;}
                59.5% {opacity: 0;}
                60.5% {opacity: 1;}
                
                78%  {transform: rotateY(180deg); fill: #e0e0e0;}
                81.5%  {fill: #ddd;}
                85%  {transform: rotateY(0deg); fill: #fff;}
                
                100%  {transform: rotateY(0deg); fill: #fff;}
            }

            @keyframes top_right_side {
                0%  {transform: rotateY(0deg); fill: #fff;}

                21%  {transform: rotateY(0deg); fill: #fff;}
                24.5%  {fill: #ddd;}
                28%  {transform: rotateY(180deg); fill: #e0e0e0;}

                39.5% {opacity: 1;}
                40.5% {opacity: 0;}
                59.5% {opacity: 0;}
                60.5% {opacity: 1;}

                72%  {transform: rotateY(180deg); fill: #f0f0f0;}
                75.5%  {fill: #ddd;}
                79%  {transform: rotateY(0deg); fill: #fff;}
                
                100%  {transform: rotateY(0deg); fill: #fff;}
            }

            @keyframes bottom_left_side {
                0%  {transform: rotateY(0deg); fill: #fff;}

                15%  {transform: rotateY(0deg); fill: #fff;}
                18.5%  {fill: #ddd;}
                22%  {transform: rotateY(180deg); fill: #f0f0f0;}

                31.45% {opacity: 1;}
                31.55% {opacity: 0;}
                68.45% {opacity: 0;}
                68.55% {opacity: 1;}
                
                78%  {transform: rotateY(180deg); fill: #e0e0e0;}
                81.5%  {fill: #ddd;}
                85%  {transform: rotateY(0deg); fill: #fff;}
                
                100%  {transform: rotateY(0deg); fill: #fff;}
            }

            @keyframes bottom_right_side {
                0%  {transform: rotateY(0deg); fill: #fff;}

                21%  {transform: rotateY(0deg); fill: #fff;}
                24.5%  {fill: #ddd;}
                28%  {transform: rotateY(180deg); fill: #e0e0e0;}

                31.45% {opacity: 1;}
                31.55% {opacity: 0;}
                68.45% {opacity: 0;}
                68.55% {opacity: 1;}

                72%  {transform: rotateY(180deg); fill: #f0f0f0;}
                75.5%  {fill: #ddd;}
                79%  {transform: rotateY(0deg); fill: #fff;}
                
                100%  {transform: rotateY(0deg); fill: #fff;}
            }

            @keyframes bottom {
                0% {transform: rotateX(0deg);}
                
                28% {transform: rotateX(0deg);}
                31.5%  {fill: #ddd;}
                35% {transform: rotateX(180deg);}

                39.5% {opacity: 1;}
                40.5% {opacity: 0;}
                59.5% {opacity: 0;}
                60.5% {opacity: 1;}

                65% {transform: rotateX(180deg);}
                68.5%  {fill: #ddd;}
                72% {transform: rotateX(0deg);}

                100% {transform: rotateX(0deg);}
            }

            @keyframes flip {
                0% {transform: rotateY(0deg);}

                5% {transform: rotateY(0deg);}
                15% {transform: rotateY(180deg);}

                35% {transform: rotateY(180deg);}
                45% {transform: rotateY(0deg);}
                
                55% {transform: rotateY(0deg);}
                65% {transform: rotateY(180deg);}

                85% {transform: rotateY(180deg);}
                95% {transform: rotateY(0deg);}

                100% {transform: rotateY(0deg);}
            }

            @keyframes front_details {
                0% {opacity: 1;}

                9.5% {opacity: 1;}
                10.5% {opacity: 0;}
                
                39.5% {opacity: 0;}
                40.5% {opacity: 1;}

                59.5% {opacity: 1;}
                60.5% {opacity: 0;}

                89.5% {opacity: 0;}
                90.5% {opacity: 1;}

                100% {opacity: 1;}
            }

            <!-- .tshirt,
            .tshirt .left_side_top,
            .tshirt .left_side_bottom,
            .tshirt .right_side_top,
            .tshirt .right_side_bottom,
            .tshirt .left_arm,
            .tshirt .right_arm,
            .tshirt .bottom,
            .tshirt .collor,
            .tshirt .neck_inner,
            .tshirt .teemill_logo {
                animation-duration: 6s;
                animation-iteration-count: infinite;
                animation-timing-function: ease-in-out;
            } -->

            .tshirt {
                transform-origin: 1198px 0px;
                animation-name: flip;
            }

            .tshirt .collor,
            .tshirt .neck_inner,
            .tshirt .teemill_logo {
                animation-name: front_details;
            }

            .tshirt .left_side_top {
                transform-origin: 794px 0px;
                animation-name: top_left_side;
            }
            .tshirt .left_side_bottom {
                transform-origin: 794px 0px;
                animation-name: bottom_left_side;
            }

            .tshirt .right_side_top {
                transform-origin: 1603px 0px;
                animation-name: top_right_side;
            }
            .tshirt .right_side_bottom {
                transform-origin: 1603px 0px;
                animation-name: bottom_right_side;
            }

            .tshirt .bottom {
                transform-origin: 0px 1141px;
                animation-name: bottom;
            } 

            .tshirt .cls-1 {fill: #fff;}
            .outline .cls-1 {stroke: #aaa; stroke-width: 60px;}
            .neck_inner {fill: #e0e0e0;}
            .collor {fill: #f0f0f0;}
            .teemill_logo .cls-4 {fill: #77b800;}
            .teemill_logo .cls-5 {fill: #313331;}
        </style>
    </defs>
    <title>tshirt</title>
    <g class="tshirt outline">
        <g class="centre_top">
            <path class="centre cls-1" d="M1684,1325V220l-121-36c0,17-127,30-284,30s-284-14-284-30L876,220V1325Z" transform="translate(-82 -184)"/>
        </g>
        <polygon class="left_side_top cls-1" points="509 122 61 312 126 847 509 798 509 1145 798 1145 798 37 509 122"/>
        <polygon class="right_side_top cls-1" points="1888 122 1599 37 1599 1145 1888 1145 1888 798 2270 847 2336 312 1888 122"/>
        <g class="bottom">
            <polygon class="centre_bottom cls-1" points="790 1137 790 1531 790 2192 1607 2192 1607 1531 1607 1137 790 1137"/>
            <polygon class="left_side_bottom cls-1" points="509 1137 509 1531 509 2192 798 2192 798 1531 798 1137 509 1137"/>
            <polygon class="right_side_bottom cls-1" points="1599 1137 1599 1531 1599 2192 1888 2192 1888 1531 1888 1137 1599 1137"/>
        </g>
    </g>
    <g class="tshirt">
        <g class="centre_top">
            <path class="centre cls-1" d="M1684,1325V220l-121-36c0,17-127,30-284,30s-284-14-284-30L876,220V1325Z" transform="translate(-82 -184)"/>
            <path class="neck_inner" d="M1280,215c-157,0-284-14-284-30,0,78,127,141,284,141s284-63,284-141C1564,201,1437,215,1280,215Z" transform="translate(-82 -184)"/>
            <path class="collor" d="M1564,184c0,78-127,141-284,141S996,262,996,184l-39,12c10,99,151,178,322,178s312-79,322-178Z" transform="translate(-82 -184)"/>
            <g class="teemill_logo">
                <rect class="cls-4" x="1484" y="559" width="25" height="141.63"/>
                <g>
                    <path class="cls-4" d="M1071,742a69,69,0,0,1,27,6,72,72,0,0,1,23,15,75,75,0,0,1,16,23,68,68,0,0,1,6,28,76,76,0,0,1-2,16H1040a36,36,0,0,0,31,19c9,0,17-3,25-10h43c-8,15-18,27-30,35s-25,12-38,12a68,68,0,0,1-28-6,75,75,0,0,1-23-15,73,73,0,0,1-15-23,69,69,0,0,1-6-28,68,68,0,0,1,6-28,75,75,0,0,1,15-23,76,76,0,0,1,23-16A66,66,0,0,1,1071,742Zm31,55a32,32,0,0,0-13-14,39,39,0,0,0-36,0,29,29,0,0,0-13,14Z" transform="translate(-82 -184)"/>
                    <path class="cls-4" d="M1219,742a69,69,0,0,1,27,6,72,72,0,0,1,23,15,75,75,0,0,1,16,23,68,68,0,0,1,6,28,76,76,0,0,1-2,16H1188a36,36,0,0,0,31,19c9,0,17-3,25-10h43c-8,15-18,27-30,35s-25,12-38,12a68,68,0,0,1-28-6,75,75,0,0,1-23-15,73,73,0,0,1-15-23,69,69,0,0,1-6-28,68,68,0,0,1,6-28,75,75,0,0,1,15-23,76,76,0,0,1,23-16A65,65,0,0,1,1219,742Zm31,55a32,32,0,0,0-13-14,39,39,0,0,0-36,0,29,29,0,0,0-13,14Z" transform="translate(-82 -184)"/>
                    <path class="cls-5" d="M1331,745v7a41,41,0,0,1,27-10,39,39,0,0,1,20,5,52,52,0,0,1,17,16,42,42,0,0,1,16-16,44,44,0,0,1,21-5,38,38,0,0,1,17,4,49,49,0,0,1,15,12,66,66,0,0,1,11,17,62,62,0,0,1,5,21v89h-36V796a18,18,0,0,0-7-13,19,19,0,0,0-11-5,17,17,0,0,0-14,5,21,21,0,0,0-6,12v89h-38V795a20,20,0,0,0-7-12,18,18,0,0,0-12-5,17,17,0,0,0-12,5,22,22,0,0,0-7,12v89h-36V744h36Z" transform="translate(-82 -184)"/>
                    <path class="cls-5" d="M1526,742v29h-36V742Zm0,45v97h-36V787Z" transform="translate(-82 -184)"/>
                    <path class="cls-5" d="M1571,742V884h-36V742Z" transform="translate(-82 -184)"/>
                    <path class="cls-5" d="M1615,742V884h-36V742Z" transform="translate(-82 -184)"/>
                    <polygon class="cls-4" points="870 540 870 700 911 700 911 540 963 540 963 499 821 499 821 540 870 540"/>
                </g>
                <g>
                    <path class="cls-4" d="M1572,683h8v-8l-3-78h-4l-3,78v8Z" transform="translate(-82 -184)"/>
                    <path class="cls-4" d="M1575,694a5,5,0,1,0-5-5A5,5,0,0,0,1575,694Z" transform="translate(-82 -184)"/>
                    <path class="cls-4" d="M1567,690l-8,2-66,41,2,3,69-36,5-5A8,8,0,0,1,1567,690Z" transform="translate(-82 -184)"/>
                    <path class="cls-4" d="M1575,698h-4l-2,188h12l-2-187Z" transform="translate(-82 -184)"/>
                    <path class="cls-4" d="M1591,691l-8-2a8,8,0,0,1-2,5l5,5,69,36,2-3Z" transform="translate(-82 -184)"/>
                </g>
                <image href="http://teemill.co.uk/uploaded/thumbnails/Logo_83145_autox120.png" x="800" y="200" width="800px" height="800px"/>
            </g>
        </g>
        <polygon class="left_side_top cls-1" points="509 122 61 312 126 847 509 798 509 1145 798 1145 798 37 509 122"/>
        <polygon class="right_side_top cls-1" points="1888 122 1599 37 1599 1145 1888 1145 1888 798 2270 847 2336 312 1888 122"/>
        <g class="bottom">
            <polygon class="centre_bottom cls-1" points="790 1137 790 1531 790 2192 1607 2192 1607 1531 1607 1137 790 1137"/>
            <polygon class="left_side_bottom cls-1" points="509 1137 509 1531 509 2192 798 2192 798 1531 798 1137 509 1137"/>
            <polygon class="right_side_bottom cls-1" points="1599 1137 1599 1531 1599 2192 1888 2192 1888 1531 1888 1137 1599 1137"/>
        </g>
    </g>
</svg>