<svg id="Layer_3" data-name="Layer 3" xmlns="http://www.w3.org/2000/svg" viewBox="0 0 2560 2560"><defs><style>.cls-1{fill:#77b800;}</style></defs><title>Blades</title><circle class="cls-1" cx="1280.23" cy="1280.19" r="32.6"/><circle class="cls-1" cx="1280.23" cy="1280.19" r="32.6" transform="translate(-468.57 1748.81) rotate(-60)"/><path class="cls-1" d="M2139.71,1770.35c-54.64-31.56-107.72-66.58-161.29-100.05q-81.18-50.72-162.67-101-80.48-50-161-99.9c-49-30.46-97.3-63-148-90.62l-88.54-48.17c-12.87-7-25.63-14.26-38.63-21-27.6-14.35-48.75,16.45-27.17,38.27,5.06,5.11,10.27,10.08,15.41,15.12l62.09,60.92,31,30.46c17.13,16.8,40,25.53,61.26,36.15l84.58,42.19q161.43,80.53,322.87,161,85.87,42.81,171.62,85.56c6.73,3.36,13.44,6.76,20.2,10.07,5.4,2.64,10.41,6.06,16.64,3.5C2147.57,1789,2148.69,1775.53,2139.71,1770.35Z"/><circle class="cls-1" cx="1280.23" cy="1280.19" r="32.6" transform="translate(-468.58 811.63) rotate(-30)"/><path class="cls-1" d="M1301.81,1187.26c7.73-28.38,14.69-57,22-85.48l10.94-42.43,5.47-21.21c5.61-21.78,2.86-43.36,1.51-65.65Q1330,779.74,1318.24,587c-4.5-73.76-8.74-147.53-13.49-221.18-1-16-1.88-32-2.92-47.93-.52-7.94-.49-16.07-1.46-24-2.51-20.31-24.29-19.61-25.43.71-1.78,31.85-2,63.85-3.07,95.75-2.18,64.24-4,128.55-6.2,192.86s-4.08,128.73-6.17,193.1q-3.11,96-6.12,192c-1.24,38.72-.79,77.08.19,115.79l2.27,89.85c.13,5.32-.25,11.09,1.54,16.14C1265,1211.86,1296.51,1209.12,1301.81,1187.26Z"/><path class="cls-1" d="M1189.57,1307.8c-28,7.4-55.88,15.54-83.8,23.31l-41.59,11.57-21.11,5.87c-18.59,5.17-33.35,14.52-49.5,25.21L677.33,1583q-95.36,63.1-190.65,126.15-19.88,13.23-39.81,26.38c-10.31,6.82-43.17,21.76-39.4,36.19,5.63,21.52,40.19-4,51.28-9.84,14-7.41,27.94-15,41.93-22.42,55.81-29.72,111.5-59.76,167.3-89.65s111.77-59.94,167.72-89.8,111.93-60,167.91-89.92c41.49-22.21,81.92-45.37,122.06-69.92,25.66-15.69,51.5-31.13,77-47.09,3.35-2.1,6.9-3.92,9.7-6.76C1228.62,1329.83,1212.19,1301.16,1189.57,1307.8Z"/></svg>