<svg id="Layer_6" data-name="Layer 6" xmlns="http://www.w3.org/2000/svg" viewBox="0 0 2560 2560"><defs><style>.cls-1{fill:none;stroke:#77b800;stroke-linecap:round;stroke-miterlimit:10;stroke-width:30px;opacity:0.2;}</style></defs><title>green_trails</title><path class="cls-1" d="M2256.9,1358.38q3.07-38.79,3.1-78.38c0-537.55-432.8-974-968.94-979.93"/><path class="cls-1" d="M2190.36,1150.4c-62.65-442.59-440.24-783.88-898.72-789.81"/><path class="cls-1" d="M2105.44,1036.69C2001.38,684,1677.37,425.74,1292.23,420.59"/><path class="cls-1" d="M2010.79,956.29c-122.53-276.6-397.27-470.74-718-476.17"/><path class="cls-1" d="M1913.26,899.7c-127-211.31-356.59-354-619.87-359.13"/><path class="cls-1" d="M1814.48,860.73C1692.78,705.78,1505.23,605,1294,600.58"/><path class="cls-1" d="M1711.79,836.05c-108.27-105.57-255-171.86-417.23-175.86"/><path class="cls-1" d="M1606.89,826.37a557.23,557.23,0,0,0-311.74-105.91"/><path class="cls-1" d="M1503.94,833.45a497.42,497.42,0,0,0-208.21-53"/><path class="cls-1" d="M722.17,2087.69q32.06,22.05,66.33,41.88c465.53,268.77,1059.91,112.19,1333.12-349.17"/><path class="cls-1" d="M935.56,2134.07c414.62,167,899,10.68,1133.36-383.41"/><path class="cls-1" d="M1076.5,2117.37c357.43,86.2,743.13-65.25,940.16-396.21"/><path class="cls-1" d="M1193.44,2075.6c300.81,32.18,606.31-108.68,771.37-383.7"/><path class="cls-1" d="M1291.22,2019.44c246.51-4.35,484.84-131.84,620.95-357.25"/><path class="cls-1" d="M1374.36,1953.38c195-27.92,376.08-140,485.55-320.69"/><path class="cls-1" d="M1447.07,1876.78c145.56-41,276.35-134.92,360.91-273.4"/><path class="cls-1" d="M1507.91,1790.77a557.23,557.23,0,0,0,247.59-217"/><path class="cls-1" d="M1553.25,1698.08a497.42,497.42,0,0,0,150-153.83"/><path class="cls-1" d="M857.93,393.93q-35.13,16.74-69.43,36.5C323,699.2,161.39,1292.25,424.33,1759.52"/><path class="cls-1" d="M711.08,555.54c-352,275.55-458.74,773.2-234.64,1173.22"/><path class="cls-1" d="M655.06,685.94C401.7,952.38,340,1362.14,528.11,1698.25"/><path class="cls-1" d="M632.77,808.11c-178.27,244.42-209,579.42-53.39,859.87"/><path class="cls-1" d="M632.51,920.86c-119.49,215.67-128.24,485.8-1.08,716.38"/><path class="cls-1" d="M648.16,1025.89c-73.34,182.87-66.82,395.68,35,580.84"/><path class="cls-1" d="M678.13,1127.17c-37.29,146.55-21.33,306.79,56.31,449.26"/><path class="cls-1" d="M722.2,1222.85a557.23,557.23,0,0,0,64.15,322.93"/><path class="cls-1" d="M779.81,1308.47a497.42,497.42,0,0,0,58.24,206.79"/></svg>