<svg id="Obiwan" xmlns="http://www.w3.org/2000/svg" viewBox="0 0 8776 2560"><defs><style>.cls-1{fill:#1200ff;opacity:0.15;}.cls-2{fill:#0c00ff;opacity:0.75;}.cls-3{fill:#fcfdfb;}.cls-4{fill:#888a8b;}.cls-5{fill:#bcbfc1;}.cls-6{fill:#cd8e4e;}.cls-7{fill:#c8b87e;}.cls-8{fill:#020404;}.cls-9{fill:#2d2f2f;}.cls-10{fill:#a4976e;}.cls-11{fill:#90602d;}.cls-12{fill:#bcae80;}.cls-13{fill:#1d1e1e;}.cls-14{fill:none;stroke:#494949;stroke-linecap:round;stroke-miterlimit:10;stroke-width:4px;}</style></defs><title>Light Sabre</title><path class="cls-1" d="M8082.66,1010.83H1950.84c-81.74,0-148,129.54-148,289.33s66.26,289.33,148,289.33H8082.66c279.25,0,505.62-129.54,505.62-289.33S8361.91,1010.83,8082.66,1010.83Z"/><path class="cls-1" d="M8082.66,1072.83H1950.84c-81.74,0-148,101.78-148,227.33s66.26,227.33,148,227.33H8082.66c204.13,0,369.62-101.78,369.62-227.33S8286.8,1072.83,8082.66,1072.83Z"/><path class="cls-1" d="M8082.66,1120.83H1950.84c-81.74,0-148,80.29-148,179.33s66.26,179.33,148,179.33H8082.66c134,0,242.62-80.29,242.62-179.33S8216.66,1120.83,8082.66,1120.83Z"/><path class="cls-1" d="M8082.66,1152.17H1950.84a148,148,0,1,0,0,296H8082.66c81,0,146.62-66.26,146.62-148S8163.64,1152.17,8082.66,1152.17Z"/><path class="cls-2" d="M8082.66,1207.83H1822.84V1392.5H8082.66a92.34,92.34,0,0,0,0-184.67Z"/><path class="cls-3" d="M8082.66,1225.17H1822.84v150H8082.66a75,75,0,0,0,0-150Z"/><g id="Colour"><rect class="cls-4" x="1638.6" y="1214.83" width="42" height="150"/><rect class="cls-5" x="1680.6" y="1178.83" width="88" height="222"/><rect class="cls-5" x="1795.6" y="1141.83" width="28" height="296"/><rect class="cls-6" x="1572.6" y="1244.83" width="66" height="90"/><rect class="cls-6" x="1535.6" y="1244.83" width="27" height="90"/><rect class="cls-7" x="1396.6" y="1244.83" width="35.67" height="90"/><rect class="cls-4" x="538.6" y="1194.67" width="318" height="190.33"/><rect class="cls-5" x="551.85" y="1190.83" width="291.5" height="198"/><rect class="cls-8" x="340.6" y="1190.83" width="198" height="198"/><rect class="cls-5" x="260.6" y="1190.83" width="52" height="198"/><rect class="cls-5" x="97.1" y="1190.83" width="42.5" height="198"/><rect class="cls-4" x="128.6" y="1186.73" width="143" height="206.22"/><rect class="cls-5" x="139.6" y="1177.61" width="121" height="224.45"/><rect class="cls-4" x="156.77" y="1249.54" width="86.67" height="80.59"/><rect class="cls-9" x="351.1" y="1368.9" width="177" height="19.93"/><rect class="cls-9" x="351.1" y="1190.83" width="177" height="19.93" transform="translate(879.2 2401.6) rotate(180)"/><rect class="cls-4" x="156.77" y="1367.55" width="86.67" height="50.78"/><rect class="cls-4" x="156.77" y="1161.33" width="86.67" height="50.78"/><rect class="cls-4" x="312.6" y="1204.83" width="28" height="170"/><rect class="cls-10" x="1463.1" y="1210.33" width="16.5" height="159"/><rect class="cls-7" x="1479.6" y="1197.83" width="56" height="184"/><rect class="cls-11" x="1562.6" y="1254.83" width="10" height="70"/><rect class="cls-12" x="1310.6" y="1254.83" width="86" height="70"/><rect class="cls-8" x="856.6" y="1210.83" width="454" height="158" transform="translate(2167.2 2579.67) rotate(180)"/><polygon class="cls-9" points="935.6 1190.83 927.6 1190.83 919.6 1190.83 911.6 1216.83 911.6 1362.83 919.6 1388.83 927.6 1388.83 935.6 1388.83 943.6 1362.83 943.6 1216.83 935.6 1190.83"/><polygon class="cls-9" points="891.6 1190.83 888.6 1190.83 883.6 1190.83 875.6 1190.83 856.6 1190.83 856.6 1388.83 875.6 1388.83 883.6 1388.83 888.6 1388.83 891.6 1388.83 899.6 1362.83 899.6 1216.83 891.6 1190.83"/><polygon class="cls-9" points="979.6 1190.83 971.6 1190.83 963.6 1190.83 955.6 1216.83 955.6 1362.83 963.6 1388.83 971.6 1388.83 979.6 1388.83 987.6 1362.83 987.6 1216.83 979.6 1190.83"/><polygon class="cls-9" points="1023.6 1190.83 1015.6 1190.83 1007.6 1190.83 999.6 1216.83 999.6 1362.83 1007.6 1388.83 1015.6 1388.83 1023.6 1388.83 1031.6 1362.83 1031.6 1216.83 1023.6 1190.83"/><polygon class="cls-9" points="1067.6 1190.83 1059.6 1190.83 1051.6 1190.83 1043.6 1216.83 1043.6 1362.83 1051.6 1388.83 1059.6 1388.83 1067.6 1388.83 1075.6 1362.83 1075.6 1216.83 1067.6 1190.83"/><polygon class="cls-9" points="1111.6 1190.83 1103.6 1190.83 1095.6 1190.83 1087.6 1216.83 1087.6 1362.83 1095.6 1388.83 1103.6 1388.83 1111.6 1388.83 1119.6 1362.83 1119.6 1216.83 1111.6 1190.83"/><polygon class="cls-9" points="1155.6 1190.83 1147.6 1190.83 1139.6 1190.83 1131.6 1216.83 1131.6 1362.83 1139.6 1388.83 1147.6 1388.83 1155.6 1388.83 1163.6 1362.83 1163.6 1216.83 1155.6 1190.83"/><polygon class="cls-9" points="1199.6 1190.83 1191.6 1190.83 1183.6 1190.83 1175.6 1216.83 1175.6 1362.83 1183.6 1388.83 1191.6 1388.83 1199.6 1388.83 1207.6 1362.83 1207.6 1216.83 1199.6 1190.83"/><polygon class="cls-9" points="1243.6 1190.83 1235.6 1190.83 1227.6 1190.83 1219.6 1216.83 1219.6 1362.83 1227.6 1388.83 1235.6 1388.83 1243.6 1388.83 1251.6 1362.83 1251.6 1216.83 1243.6 1190.83"/><polygon class="cls-9" points="1287.6 1190.83 1279.6 1190.83 1271.6 1190.83 1263.6 1216.83 1263.6 1362.83 1271.6 1388.83 1279.6 1388.83 1287.6 1388.83 1295.6 1362.83 1295.6 1216.83 1287.6 1190.83"/><rect class="cls-4" x="551.85" y="1156.67" width="291.5" height="34.17"/><rect class="cls-5" x="546.1" y="1122.17" width="303" height="34.5"/><path class="cls-9" d="M351.1,1223.33v34.22h21.11a61.21,61.21,0,0,1,104,0H528.1v-34.22Z"/><path class="cls-9" d="M476.23,1322.12a61.21,61.21,0,0,1-104,0H351.1v34.22h177v-34.22Z"/><path class="cls-9" d="M363,1289.83a61.1,61.1,0,0,1,3.26-19.72H351.1v39.43h15.17A61.1,61.1,0,0,1,363,1289.83Z"/><path class="cls-9" d="M482.17,1270.12a61.18,61.18,0,0,1,0,39.43H528.1v-39.43Z"/><circle class="cls-9" cx="424.22" cy="1289.83" r="55.5"/><circle class="cls-13" cx="424.22" cy="1289.83" r="24.44"/><circle class="cls-4" cx="424.22" cy="1289.83" r="14.44"/><line class="cls-14" x1="419.34" y1="1294.71" x2="429.1" y2="1284.95"/><line class="cls-14" x1="419.34" y1="1284.95" x2="429.1" y2="1294.71"/><polygon class="cls-7" points="1452.85 1197.83 1442.6 1197.83 1442.6 1381.83 1452.85 1381.83 1463.1 1373.67 1463.1 1289.83 1463.1 1206 1452.85 1197.83"/><polygon class="cls-10" points="1437.43 1344.58 1442.6 1344.58 1442.6 1235.08 1437.43 1235.08 1432.27 1239.94 1432.27 1289.83 1432.27 1339.72 1437.43 1344.58"/><polygon class="cls-4" points="1782.1 1413.83 1795.6 1413.83 1795.6 1165.83 1782.1 1165.83 1768.6 1178.83 1768.6 1289.83 1768.6 1400.83 1782.1 1413.83"/></g></svg>