<svg id="Layer_5" data-name="Layer 5" xmlns="http://www.w3.org/2000/svg" viewBox="0 0 2560 2560"><defs><style>.cls-1{fill:#77b800; opacity:0.4}</style></defs><title>trail_2</title><path class="cls-1" d="M2131.43,788.42A982.81,982.81,0,0,0,1766.5,437.28,964.84,964.84,0,0,0,1280,317V277a1005.34,1005.34,0,0,1,258.33,38.87,992.59,992.59,0,0,1,593.1,472.55Z"/><path class="cls-1" d="M428.57,788.42A982.81,982.81,0,0,0,306.94,1280,964.83,964.83,0,0,0,446,1761.5l-34.64,20a1005.34,1005.34,0,0,1-95.5-243.16A992.59,992.59,0,0,1,428.57,788.42Z"/><path class="cls-1" d="M1280,2263.15a982.81,982.81,0,0,0,486.57-140.48A964.83,964.83,0,0,0,2114,1761.5l34.64,20a1005.34,1005.34,0,0,1-162.83,204.28A992.59,992.59,0,0,1,1280,2263.15Z"/></svg>